<svg width="28" height="23" viewBox="0 0 28 23" fill="none" xmlns="http://www.w3.org/2000/svg">
<path d="M25.9467 22.6667C24.6667 23.3067 22.9601 22.8801 22.1067 21.6001L19.7601 18.6134H8.24008L5.89341 21.6001C4.82675 23.0934 2.90674 23.3067 1.41341 22.2401C0.346745 21.3867 -0.0799219 20.1067 0.133411 19.0401L1.62674 11.1467C2.05341 8.58672 4.40008 6.66672 6.96008 6.66672H12.9334V3.46672C12.9334 1.76006 14.2134 0.266724 15.9201 0.266724H22.5334C23.1734 0.266724 23.6001 0.69339 23.6001 1.33339C23.6001 1.97339 23.1734 2.40006 22.5334 2.40006H16.1334C15.4934 2.40006 15.0667 2.82672 15.0667 3.25339V3.46672V6.66672H21.0401C23.6001 6.66672 25.9467 8.58672 26.3734 11.1467L27.8667 19.0401C28.0801 20.5334 27.4401 22.0267 25.9467 22.6667ZM10.8001 12.0001C10.8001 10.2934 9.30674 8.80006 7.60008 8.80006C5.89341 8.80006 4.40008 10.2934 4.40008 12.0001C4.40008 13.7067 5.89341 15.2001 7.60008 15.2001C9.30674 15.2001 10.8001 13.7067 10.8001 12.0001ZM23.6001 12.0001C23.6001 11.3601 23.1734 10.9334 22.5334 10.9334H21.4667V9.86672C21.4667 9.22672 21.0401 8.80006 20.4001 8.80006C19.7601 8.80006 19.3334 9.22672 19.3334 9.86672V10.9334H18.2667C17.6267 10.9334 17.2001 11.3601 17.2001 12.0001C17.2001 12.6401 17.6267 13.0667 18.2667 13.0667H19.3334V14.1334C19.3334 14.7734 19.7601 15.2001 20.4001 15.2001C21.0401 15.2001 21.4667 14.7734 21.4667 14.1334V13.0667H22.5334C23.1734 13.0667 23.6001 12.6401 23.6001 12.0001Z" fill="url(#paint0_linear_88_301)"/>
<defs>
<linearGradient id="paint0_linear_88_301" x1="13.9934" y1="0.266724" x2="13.9934" y2="22.9608" gradientUnits="userSpaceOnUse">
<stop stop-color="#22B5F2"/>
<stop offset="1" stop-color="#3489ED"/>
</linearGradient>
</defs>
</svg>
