<svg width="24" height="16" viewBox="0 0 24 16" fill="none" xmlns="http://www.w3.org/2000/svg">
<path d="M18.4804 8.44496C20.0654 8.44496 21.3504 7.16001 21.3504 5.57496C21.3504 3.9899 20.0654 2.70496 18.4804 2.70496C16.8953 2.70496 15.6104 3.9899 15.6104 5.57496C15.6104 7.16001 16.8953 8.44496 18.4804 8.44496Z" fill="url(#paint0_linear_88_304)"/>
<path d="M23.1149 11.6099C23.1149 11.4649 23.0799 11.3149 23.0649 11.1649C23.0025 10.4815 22.6868 9.84602 22.1798 9.38344C21.6729 8.92086 21.0112 8.66457 20.3249 8.66492H19.7699C19.3582 8.82245 18.9208 8.90213 18.4799 8.89992C18.0908 8.90028 17.7041 8.83781 17.3349 8.71492C17.6638 9.20665 17.8602 9.77501 17.9049 10.3649C17.9161 10.5576 17.9378 10.7496 17.9699 10.9399L18.4699 13.7249C17.7406 14.3505 16.9236 14.866 16.0449 15.2549C17.3101 15.6711 18.6615 15.753 19.9677 15.4928C21.274 15.2326 22.4907 14.6391 23.4999 13.7699L23.1149 11.6099Z" fill="url(#paint1_linear_88_304)"/>
<path d="M5.52039 8.44496C7.10545 8.44496 8.39039 7.16001 8.39039 5.57496C8.39039 3.9899 7.10545 2.70496 5.52039 2.70496C3.93533 2.70496 2.65039 3.9899 2.65039 5.57496C2.65039 7.16001 3.93533 8.44496 5.52039 8.44496Z" fill="url(#paint2_linear_88_304)"/>
<path d="M6.03 10.9149C6.06208 10.7245 6.08378 10.5326 6.095 10.3399C6.13974 9.74999 6.33608 9.18163 6.665 8.68989C6.29578 8.81279 5.90914 8.87526 5.52 8.87489C5.07916 8.87711 4.64174 8.79742 4.23 8.63989H3.675C2.98869 8.63955 2.32706 8.89584 1.82008 9.35842C1.31309 9.821 0.997391 10.4564 0.935 11.1399C0.935 11.2899 0.935 11.4399 0.885 11.5849L0.5 13.7699C1.5121 14.6357 2.73087 15.2252 4.03799 15.481C5.34511 15.7368 6.69617 15.6503 7.96 15.2299C7.08133 14.841 6.26434 14.3255 5.535 13.6999L6.03 10.9149Z" fill="url(#paint3_linear_88_304)"/>
<path d="M12.0003 7.12994C13.9167 7.12994 15.4703 5.57637 15.4703 3.65994C15.4703 1.74351 13.9167 0.189941 12.0003 0.189941C10.0838 0.189941 8.53027 1.74351 8.53027 3.65994C8.53027 5.57637 10.0838 7.12994 12.0003 7.12994Z" fill="url(#paint4_linear_88_304)"/>
<path d="M17.5997 10.955C17.571 10.7762 17.5526 10.5959 17.5447 10.415C17.4745 9.5838 17.095 8.8092 16.4812 8.24441C15.8673 7.67963 15.0638 7.36579 14.2297 7.36499H13.5547C12.5541 7.75156 11.4453 7.75156 10.4447 7.36499H9.76969C8.93554 7.36579 8.13207 7.67963 7.51822 8.24441C6.90436 8.8092 6.52483 9.5838 6.45469 10.415C6.44677 10.5959 6.42841 10.7762 6.39969 10.955L5.92969 13.57C7.62177 15.0155 9.7742 15.8098 11.9997 15.8098C14.2252 15.8098 16.3776 15.0155 18.0697 13.57L17.5997 10.955Z" fill="url(#paint5_linear_88_304)"/>
<defs>
<linearGradient id="paint0_linear_88_304" x1="18.4804" y1="2.70496" x2="18.4804" y2="8.44496" gradientUnits="userSpaceOnUse">
<stop stop-color="#22B5F2"/>
<stop offset="1" stop-color="#3489ED"/>
</linearGradient>
<linearGradient id="paint1_linear_88_304" x1="19.7724" y1="8.66492" x2="19.7724" y2="15.6417" gradientUnits="userSpaceOnUse">
<stop stop-color="#22B5F2"/>
<stop offset="1" stop-color="#3489ED"/>
</linearGradient>
<linearGradient id="paint2_linear_88_304" x1="5.52039" y1="2.70496" x2="5.52039" y2="8.44496" gradientUnits="userSpaceOnUse">
<stop stop-color="#22B5F2"/>
<stop offset="1" stop-color="#3489ED"/>
</linearGradient>
<linearGradient id="paint3_linear_88_304" x1="4.23" y1="8.63989" x2="4.23" y2="15.6248" gradientUnits="userSpaceOnUse">
<stop stop-color="#22B5F2"/>
<stop offset="1" stop-color="#3489ED"/>
</linearGradient>
<linearGradient id="paint4_linear_88_304" x1="12.0003" y1="0.189941" x2="12.0003" y2="7.12994" gradientUnits="userSpaceOnUse">
<stop stop-color="#22B5F2"/>
<stop offset="1" stop-color="#3489ED"/>
</linearGradient>
<linearGradient id="paint5_linear_88_304" x1="11.9997" y1="7.36499" x2="11.9997" y2="15.8098" gradientUnits="userSpaceOnUse">
<stop stop-color="#22B5F2"/>
<stop offset="1" stop-color="#3489ED"/>
</linearGradient>
</defs>
</svg>
