<svg width="28" height="22" viewBox="0 0 28 22" fill="none" xmlns="http://www.w3.org/2000/svg">
<path d="M27.4144 3.43597C27.2562 2.77151 26.9442 2.16505 26.5097 1.67734C26.0753 1.18963 25.5335 0.837774 24.9386 0.657015C22.7559 -1.74479e-07 14 0 14 0C14 0 5.24416 -1.74479e-07 3.06016 0.657015C2.46565 0.838096 1.92418 1.19008 1.48992 1.67775C1.05567 2.16544 0.743857 2.77172 0.585666 3.43597C0 5.88706 0 11 0 11C0 11 0 16.113 0.585666 18.5641C0.743851 19.2286 1.0558 19.835 1.49029 20.3227C1.92477 20.8104 2.46654 21.1622 3.06134 21.343C5.24416 22 14 22 14 22C14 22 22.7559 22 24.9399 21.343C25.5347 21.1624 26.0765 20.8106 26.511 20.3229C26.9455 19.8351 27.2574 19.2286 27.4155 18.5641C28 16.113 28 11 28 11C28 11 28 5.88706 27.4144 3.43597ZM11.1359 15.642V6.35806L18.4544 11L11.1359 15.642Z" fill="white"/>
</svg>
