<svg width="36" height="37" viewBox="0 0 36 37" fill="none" xmlns="http://www.w3.org/2000/svg">
<path d="M34.6173 18.0938C35.1439 17.5553 35.5131 16.883 35.685 16.1497C35.8568 15.4165 35.8248 14.6501 35.5923 13.9338C35.3779 13.2216 34.9667 12.5845 34.4061 12.0958C33.8455 11.6071 33.1583 11.2866 32.4236 11.1713L25.2086 10.0988C25.0821 10.0804 24.9623 10.0306 24.8601 9.95396C24.7579 9.87731 24.6766 9.77624 24.6236 9.66002L21.3736 2.88377C21.0677 2.21964 20.5807 1.65532 19.9683 1.25574C19.356 0.856154 18.6434 0.637532 17.9123 0.62502V0.62502C17.1675 0.622635 16.438 0.836274 15.8121 1.24006C15.1862 1.64384 14.6909 2.22044 14.3861 2.90002L11.1361 9.69252C11.0843 9.80963 11.0033 9.91149 10.9009 9.98831C10.7984 10.0651 10.678 10.1144 10.5511 10.1313L3.3523 11.2525C2.61837 11.3651 1.93182 11.6849 1.37338 12.1742C0.814928 12.6636 0.407784 13.3022 0.199801 14.015C-0.0324791 14.7326 -0.0628653 15.5003 0.111968 16.234C0.286802 16.9678 0.660117 17.6393 1.19105 18.175L6.5373 23.4563C6.62856 23.5459 6.69688 23.6562 6.73648 23.7778C6.77608 23.8995 6.78579 24.0288 6.7648 24.155L5.54605 31.63C5.42618 32.3764 5.51445 33.1415 5.80113 33.841C6.08782 34.5405 6.56183 35.1474 7.17105 35.595C7.82274 36.0986 8.62249 36.3728 9.44605 36.375C10.0876 36.3714 10.7183 36.2095 11.2823 35.9038L17.7823 32.3613C17.8935 32.2971 18.0196 32.2633 18.1479 32.2633C18.2763 32.2633 18.4024 32.2971 18.5136 32.3613L25.0136 35.8713C25.6569 36.2203 26.3877 36.3753 27.1173 36.3176C27.847 36.26 28.5443 35.992 29.1248 35.5463C29.734 35.0948 30.2076 34.4849 30.4942 33.7829C30.7807 33.0809 30.8691 32.3138 30.7498 31.565L29.4986 24.1063C29.4755 23.9789 29.4826 23.8478 29.5192 23.7237C29.5559 23.5995 29.6212 23.4857 29.7098 23.3913L34.6173 18.0938ZM27.2073 21.0675C26.7449 21.5329 26.3982 22.1002 26.195 22.7239C25.9918 23.3477 25.9378 24.0104 26.0373 24.6588L27.2886 32.1338C27.3185 32.2781 27.3069 32.428 27.2552 32.5661C27.2034 32.7041 27.1135 32.8247 26.9961 32.9138C26.875 32.9921 26.734 33.0338 26.5898 33.0338C26.4456 33.0338 26.3046 32.9921 26.1836 32.9138L19.6836 29.4038C19.1252 29.0994 18.4995 28.9399 17.8636 28.9399C17.2276 28.9399 16.6019 29.0994 16.0436 29.4038L9.54355 32.9463C9.42254 33.0246 9.28146 33.0663 9.1373 33.0663C8.99314 33.0663 8.85206 33.0246 8.73105 32.9463C8.60909 32.8606 8.51486 32.7411 8.46 32.6025C8.40514 32.4639 8.39203 32.3122 8.4223 32.1663L9.7873 24.7075C9.89309 24.0629 9.8468 23.4026 9.65213 22.7791C9.45745 22.1556 9.11979 21.5862 8.66605 21.1163L3.4173 15.835C3.3237 15.7243 3.26213 15.5901 3.23922 15.4469C3.21631 15.3037 3.23293 15.157 3.2873 15.0225C3.32913 14.8795 3.41105 14.7515 3.52336 14.6536C3.63567 14.5557 3.77368 14.492 3.92105 14.47L11.1198 13.365C11.7411 13.2531 12.326 12.9921 12.8241 12.6043C13.3223 12.2165 13.7189 11.7136 13.9798 11.1388L17.2298 4.33002C17.2868 4.1959 17.3818 4.08138 17.5031 4.00054C17.6243 3.9197 17.7666 3.87607 17.9123 3.87502C18.059 3.87151 18.2034 3.91124 18.3277 3.98926C18.4519 4.06727 18.5505 4.18013 18.6111 4.31377L21.8611 11.1063C22.1351 11.6857 22.5461 12.1897 23.0586 12.5747C23.571 12.9598 24.1695 13.2143 24.8023 13.3163L32.0173 14.3888C32.1619 14.4065 32.298 14.467 32.408 14.5625C32.5181 14.658 32.597 14.7843 32.6348 14.925C32.6861 15.0672 32.695 15.2212 32.6603 15.3683C32.6257 15.5155 32.5491 15.6494 32.4398 15.7538L27.2073 21.0675Z" fill="url(#paint0_linear_85_484)"/>
<defs>
<linearGradient id="paint0_linear_85_484" x1="17.8969" y1="0.625" x2="17.8969" y2="36.375" gradientUnits="userSpaceOnUse">
<stop stop-color="#22B5F2"/>
<stop offset="1" stop-color="#3489ED"/>
</linearGradient>
</defs>
</svg>
