<svg width="168" height="32" viewBox="0 0 168 32" fill="none" xmlns="http://www.w3.org/2000/svg">
<path d="M10.3516 25.8828C10.5599 25.9479 10.7682 25.9935 10.9766 26.0195C11.1849 26.0326 11.3932 26.0391 11.6016 26.0391C12.1224 26.0391 12.6237 25.9674 13.1055 25.8242C13.5872 25.681 14.0365 25.4792 14.4531 25.2188C14.8828 24.9453 15.2604 24.6198 15.5859 24.2422C15.9245 23.8516 16.1979 23.4219 16.4062 22.9531L20.3125 26.8789C19.8177 27.582 19.2448 28.2135 18.5938 28.7734C17.9557 29.3333 17.2591 29.8086 16.5039 30.1992C15.7617 30.5898 14.974 30.8828 14.1406 31.0781C13.3203 31.2865 12.474 31.3906 11.6016 31.3906C10.1302 31.3906 8.74349 31.1172 7.44141 30.5703C6.15234 30.0234 5.01953 29.2617 4.04297 28.2852C3.07943 27.3086 2.31771 26.1497 1.75781 24.8086C1.19792 23.4544 0.917969 21.9701 0.917969 20.3555C0.917969 18.7018 1.19792 17.1914 1.75781 15.8242C2.31771 14.457 3.07943 13.2917 4.04297 12.3281C5.01953 11.3646 6.15234 10.6159 7.44141 10.082C8.74349 9.54818 10.1302 9.28125 11.6016 9.28125C12.474 9.28125 13.3268 9.38542 14.1602 9.59375C14.9935 9.80208 15.7812 10.1016 16.5234 10.4922C17.2786 10.8828 17.9818 11.3646 18.6328 11.9375C19.2839 12.4974 19.8568 13.1289 20.3516 13.832L10.3516 25.8828ZM13.0859 14.8867C12.8385 14.7956 12.5911 14.737 12.3438 14.7109C12.1094 14.6849 11.862 14.6719 11.6016 14.6719C10.8724 14.6719 10.1823 14.8086 9.53125 15.082C8.89323 15.3424 8.33333 15.7201 7.85156 16.2148C7.38281 16.7096 7.01172 17.3086 6.73828 18.0117C6.46484 18.7018 6.32812 19.4831 6.32812 20.3555C6.32812 20.5508 6.33464 20.7721 6.34766 21.0195C6.3737 21.2669 6.40625 21.5208 6.44531 21.7812C6.4974 22.0286 6.55599 22.2695 6.62109 22.5039C6.6862 22.7383 6.77083 22.9466 6.875 23.1289L13.0859 14.8867ZM28.7109 31L20.7422 10.082H26.8164L31.3867 23.1289L35.9375 10.082H42.0312L34.0625 31H28.7109ZM63.6523 20.3555C63.6523 21.918 63.3724 23.3763 62.8125 24.7305C62.2526 26.0716 61.4909 27.237 60.5273 28.2266C59.5638 29.2031 58.431 29.9779 57.1289 30.5508C55.8398 31.1107 54.4531 31.3906 52.9688 31.3906C51.4974 31.3906 50.1107 31.1107 48.8086 30.5508C47.5195 29.9779 46.3867 29.2031 45.4102 28.2266C44.4466 27.237 43.6849 26.0716 43.125 24.7305C42.5651 23.3763 42.2852 21.918 42.2852 20.3555C42.2852 18.7669 42.5651 17.2956 43.125 15.9414C43.6849 14.5872 44.4466 13.4219 45.4102 12.4453C46.3867 11.4557 47.5195 10.681 48.8086 10.1211C50.1107 9.5612 51.4974 9.28125 52.9688 9.28125C54.4531 9.28125 55.8398 9.54818 57.1289 10.082C58.431 10.6029 59.5638 11.3516 60.5273 12.3281C61.4909 13.2917 62.2526 14.457 62.8125 15.8242C63.3724 17.1784 63.6523 18.6888 63.6523 20.3555ZM58.2812 20.3555C58.2812 19.4961 58.138 18.7214 57.8516 18.0312C57.5781 17.3281 57.2005 16.7292 56.7188 16.2344C56.237 15.7266 55.6706 15.3424 55.0195 15.082C54.3815 14.8086 53.6979 14.6719 52.9688 14.6719C52.2396 14.6719 51.5495 14.8086 50.8984 15.082C50.2604 15.3424 49.7005 15.7266 49.2188 16.2344C48.75 16.7292 48.3789 17.3281 48.1055 18.0312C47.832 18.7214 47.6953 19.4961 47.6953 20.3555C47.6953 21.1628 47.832 21.9115 48.1055 22.6016C48.3789 23.2917 48.75 23.8906 49.2188 24.3984C49.7005 24.9062 50.2604 25.3099 50.8984 25.6094C51.5495 25.8958 52.2396 26.0391 52.9688 26.0391C53.6979 26.0391 54.3815 25.9023 55.0195 25.6289C55.6706 25.3555 56.237 24.9714 56.7188 24.4766C57.2005 23.9818 57.5781 23.3828 57.8516 22.6797C58.138 21.9766 58.2812 21.2018 58.2812 20.3555ZM71.9727 31H66.6016V1.76172H71.9727V31ZM91.4258 28.5586C90.9961 28.9492 90.5339 29.3203 90.0391 29.6719C89.5573 30.0104 89.0495 30.3099 88.5156 30.5703C87.9818 30.8177 87.4284 31.013 86.8555 31.1562C86.2956 31.3125 85.7227 31.3906 85.1367 31.3906C83.8477 31.3906 82.6367 31.1628 81.5039 30.707C80.3711 30.2513 79.375 29.6068 78.5156 28.7734C77.6693 27.9271 76.9987 26.9049 76.5039 25.707C76.0221 24.4961 75.7812 23.1419 75.7812 21.6445V10.082H81.0938V21.6445C81.0938 22.3477 81.1979 22.9792 81.4062 23.5391C81.6276 24.0859 81.9206 24.5482 82.2852 24.9258C82.6497 25.3034 83.0729 25.5898 83.5547 25.7852C84.0495 25.9805 84.5768 26.0781 85.1367 26.0781C85.6836 26.0781 86.1979 25.9544 86.6797 25.707C87.1745 25.4466 87.6042 25.1081 87.9688 24.6914C88.3333 24.2747 88.6198 23.806 88.8281 23.2852C89.0365 22.7513 89.1406 22.2044 89.1406 21.6445V10.082H94.4727V31H93.1836L91.4258 28.5586ZM109.043 31C107.754 31 106.543 30.7591 105.41 30.2773C104.277 29.7826 103.281 29.112 102.422 28.2656C101.576 27.4062 100.905 26.4102 100.41 25.2773C99.9284 24.1445 99.6875 22.9336 99.6875 21.6445V15.4336H97.0898V10.1211H99.6875V1.76172H105V10.1211H113.086V15.4336H105V21.6445C105 22.2044 105.104 22.7318 105.312 23.2266C105.521 23.7083 105.807 24.1315 106.172 24.4961C106.536 24.8607 106.966 25.1536 107.461 25.375C107.956 25.5833 108.483 25.6875 109.043 25.6875H113.086V31H109.043ZM122.383 4.39844C122.383 4.89323 122.285 5.35547 122.09 5.78516C121.908 6.21484 121.654 6.59245 121.328 6.91797C121.003 7.23047 120.618 7.48438 120.176 7.67969C119.746 7.86198 119.284 7.95312 118.789 7.95312C118.294 7.95312 117.826 7.86198 117.383 7.67969C116.953 7.48438 116.576 7.23047 116.25 6.91797C115.938 6.59245 115.684 6.21484 115.488 5.78516C115.306 5.35547 115.215 4.89323 115.215 4.39844C115.215 3.91667 115.306 3.46094 115.488 3.03125C115.684 2.58854 115.938 2.21094 116.25 1.89844C116.576 1.57292 116.953 1.31901 117.383 1.13672C117.826 0.941406 118.294 0.84375 118.789 0.84375C119.284 0.84375 119.746 0.941406 120.176 1.13672C120.618 1.31901 121.003 1.57292 121.328 1.89844C121.654 2.21094 121.908 2.58854 122.09 3.03125C122.285 3.46094 122.383 3.91667 122.383 4.39844ZM121.465 31H116.094V10.082H121.465V31ZM145.762 20.3555C145.762 21.918 145.482 23.3763 144.922 24.7305C144.362 26.0716 143.6 27.237 142.637 28.2266C141.673 29.2031 140.54 29.9779 139.238 30.5508C137.949 31.1107 136.562 31.3906 135.078 31.3906C133.607 31.3906 132.22 31.1107 130.918 30.5508C129.629 29.9779 128.496 29.2031 127.52 28.2266C126.556 27.237 125.794 26.0716 125.234 24.7305C124.674 23.3763 124.395 21.918 124.395 20.3555C124.395 18.7669 124.674 17.2956 125.234 15.9414C125.794 14.5872 126.556 13.4219 127.52 12.4453C128.496 11.4557 129.629 10.681 130.918 10.1211C132.22 9.5612 133.607 9.28125 135.078 9.28125C136.562 9.28125 137.949 9.54818 139.238 10.082C140.54 10.6029 141.673 11.3516 142.637 12.3281C143.6 13.2917 144.362 14.457 144.922 15.8242C145.482 17.1784 145.762 18.6888 145.762 20.3555ZM140.391 20.3555C140.391 19.4961 140.247 18.7214 139.961 18.0312C139.688 17.3281 139.31 16.7292 138.828 16.2344C138.346 15.7266 137.78 15.3424 137.129 15.082C136.491 14.8086 135.807 14.6719 135.078 14.6719C134.349 14.6719 133.659 14.8086 133.008 15.082C132.37 15.3424 131.81 15.7266 131.328 16.2344C130.859 16.7292 130.488 17.3281 130.215 18.0312C129.941 18.7214 129.805 19.4961 129.805 20.3555C129.805 21.1628 129.941 21.9115 130.215 22.6016C130.488 23.2917 130.859 23.8906 131.328 24.3984C131.81 24.9062 132.37 25.3099 133.008 25.6094C133.659 25.8958 134.349 26.0391 135.078 26.0391C135.807 26.0391 136.491 25.9023 137.129 25.6289C137.78 25.3555 138.346 24.9714 138.828 24.4766C139.31 23.9818 139.688 23.3828 139.961 22.6797C140.247 21.9766 140.391 21.2018 140.391 20.3555ZM154.043 31H148.711V10.082H150L151.758 12.1133C152.617 11.332 153.587 10.7331 154.668 10.3164C155.762 9.88672 156.901 9.67188 158.086 9.67188C159.362 9.67188 160.566 9.91927 161.699 10.4141C162.832 10.8958 163.822 11.5664 164.668 12.4258C165.514 13.2721 166.178 14.2682 166.66 15.4141C167.155 16.5469 167.402 17.7578 167.402 19.0469V31H162.07V19.0469C162.07 18.5 161.966 17.9857 161.758 17.5039C161.549 17.0091 161.263 16.5794 160.898 16.2148C160.534 15.8503 160.111 15.5638 159.629 15.3555C159.147 15.1471 158.633 15.043 158.086 15.043C157.526 15.043 156.999 15.1471 156.504 15.3555C156.009 15.5638 155.579 15.8503 155.215 16.2148C154.85 16.5794 154.564 17.0091 154.355 17.5039C154.147 17.9857 154.043 18.5 154.043 19.0469V31Z" fill="white"/>
</svg>
